<svg xmlns="http://www.w3.org/2000/svg" width="70" height="70" viewBox="0 0 70 70">
  <defs>
    <style>
      .cls-1 {
        fill: #000;
        fill-rule: evenodd;
      }
    </style>
  </defs>
  <path id="Play-button" class="cls-1" d="M1015.03,3988.77l-19.3-13.2a1.486,1.486,0,0,0-2.329,1.23v26.4a1.483,1.483,0,0,0,2.329,1.23l19.3-13.2A1.49,1.49,0,0,0,1015.03,3988.77ZM1001,3955a35,35,0,1,0,35,35A35.038,35.038,0,0,0,1001,3955Zm0,67.01a32.01,32.01,0,1,1,32.01-32.01A32.039,32.039,0,0,1,1001,4022.01Z" transform="translate(-966 -3955)"/>
</svg>
